HIERARCHY
ROOT Hips
{
	OFFSET	0.00	0.00	0.00
	CHANNELS 6 Xposition Yposition Zposition Zrotation Xrotation Yrotation
	JOINT LeftUpLeg
	{
		OFFSET	 0.126116	-0.014019	-0.065224
		CHANNELS 3 Zrotation Xrotation Yrotation
		JOINT LeftLeg
		{
			OFFSET	 0.000000	 0.000000	 0.569914
			CHANNELS 3 Zrotation Xrotation Yrotation
			JOINT LeftFoot
			{
				OFFSET	 0.000000	 0.000000	 0.544423
				CHANNELS 3 Zrotation Xrotation Yrotation
				JOINT LeftToeBase
				{
					OFFSET	 0.000000	 0.000000	 0.207117
					CHANNELS 3 Zrotation Xrotation Yrotation
					End Site
					{
						OFFSET	 0.000000	 0.000000	 0.207117
					}
				}
			}
		}
	}
	JOINT RightUpLeg
	{
		OFFSET	-0.124023	-0.008373	-0.065224
		CHANNELS 3 Zrotation Xrotation Yrotation
		JOINT RightLeg
		{
			OFFSET	 0.000000	 0.000000	 0.570047
			CHANNELS 3 Zrotation Xrotation Yrotation
			JOINT RightFoot
			{
				OFFSET	 0.000000	 0.000000	 0.544354
				CHANNELS 3 Zrotation Xrotation Yrotation
				JOINT RightToeBase
				{
					OFFSET	 0.000000	 0.000000	 0.207540
					CHANNELS 3 Zrotation Xrotation Yrotation
					End Site
					{
						OFFSET	 0.000000	 0.000000	 0.207540
					}
				}
			}
		}
	}
	JOINT Spine
	{
		OFFSET	 0.000184	-0.007763	 0.117403
		CHANNELS 3 Zrotation Xrotation Yrotation
		JOINT Spine1
		{
			OFFSET	 0.000000	 0.000000	 0.137269
			CHANNELS 3 Zrotation Xrotation Yrotation
			JOINT Spine2
			{
				OFFSET	 0.000000	 0.000000	 0.156879
				CHANNELS 3 Zrotation Xrotation Yrotation
				JOINT LeftShoulder
				{
					OFFSET	 0.080501	-0.002496	 0.160144
					CHANNELS 3 Zrotation Xrotation Yrotation
					JOINT LeftArm
					{
						OFFSET	 0.000000	 0.000000	 0.164363
						CHANNELS 3 Zrotation Xrotation Yrotation
						JOINT LeftForeArm
						{
							OFFSET	 0.000000	 0.000000	 0.364576
							CHANNELS 3 Zrotation Xrotation Yrotation
							JOINT LeftHand
							{
								OFFSET	 0.000000	 0.000000	 0.360812
								CHANNELS 3 Zrotation Xrotation Yrotation
								JOINT LeftHandIndex1
								{
									OFFSET	 0.000000	 0.000000	 0.086006
									CHANNELS 3 Zrotation Xrotation Yrotation
									JOINT LeftHandIndex2
									{
										OFFSET	 0.000000	 0.000000	 0.047236
										CHANNELS 3 Zrotation Xrotation Yrotation
										JOINT LeftHandIndex3
										{
											OFFSET	-0.004284	-0.000551	 0.038166
											CHANNELS 3 Zrotation Xrotation Yrotation
											End Site
											{
												OFFSET	-0.004284	-0.000551	 0.038166
											}
										}
									}
								}
							}
						}
					}
				}
				JOINT Neck
				{
					OFFSET	 0.000000	 0.000000	 0.176489
					CHANNELS 3 Zrotation Xrotation Yrotation
					JOINT Head
					{
						OFFSET	 0.000000	-0.001747	 0.077940
						CHANNELS 3 Zrotation Xrotation Yrotation
						End Site
						{
							OFFSET	 0.000000	-0.001747	 0.077940
						}
					}
				}
				JOINT RightShoulder
				{
					OFFSET	-0.080363	 0.000306	 0.159706
					CHANNELS 3 Zrotation Xrotation Yrotation
					JOINT RightArm
					{
						OFFSET	 0.000000	 0.000000	 0.164196
						CHANNELS 3 Zrotation Xrotation Yrotation
						JOINT RightForeArm
						{
							OFFSET	 0.000000	 0.000000	 0.365611
							CHANNELS 3 Zrotation Xrotation Yrotation
							JOINT RightHand
							{
								OFFSET	 0.000000	 0.000000	 0.360648
								CHANNELS 3 Zrotation Xrotation Yrotation
								JOINT RightHandIndex1
								{
									OFFSET	 0.000000	 0.000000	 0.069977
									CHANNELS 3 Zrotation Xrotation Yrotation
									JOINT RightHandIndex2
									{
										OFFSET	 0.000000	 0.000000	 0.052305
										CHANNELS 3 Zrotation Xrotation Yrotation
										JOINT RightHandIndex3
										{
											OFFSET	 0.009002	-0.000782	 0.042196
											CHANNELS 3 Zrotation Xrotation Yrotation
											End Site
											{
												OFFSET	 0.009002	-0.000782	 0.042196
											}
										}
									}
								}
							}
						}
					}
				}
			}
		}
	}
}
MOTION
Frames:    6
Frame Time: 0.03333334
-0.055961	-2.217222	 1.158866	 5.046560	-1.075787	-2.727070	 0.004775	-18.964750	-171.425100	 1.157393	-50.885430	 0.624352	 87.050960	 82.674530	-91.659120	-2.369525	 31.593540	-0.069447	-4.145338	-35.551120	-175.327600	 14.071240	-60.357320	 12.958560	 37.910110	 80.984450	-34.962080	 2.358900	 33.010270	 0.103461	-6.742129	 8.626311	 2.051607	-2.027002	 1.510277	-1.504435	 3.232736	-1.684364	 1.642335	-93.958630	 59.016350	 175.338300	 23.784050	 42.747090	-20.926060	-1.816434	-2.363052	-23.074750	 1.323994	-4.400314	-7.545370	-4.868972	 19.250560	-2.786623	-3.883140	 21.452160	 2.204394	-4.808243	 5.545675	 0.146960	-0.069422	-5.082741	 0.187696	 1.140026	 2.028695	 2.725404	 89.772500	 61.657690	 179.977000	-19.931590	 52.556400	 13.882870	-1.852832	-1.175442	 5.913135	-4.954381	 10.490760	 0.553991	 6.292308	 24.691680	-0.535666	 1.910140	 44.500690	-7.015063	 0.564501	 24.108260	 3.548939
-0.056752	-2.238111	 1.159164	 6.171844	 0.117351	-2.932446	-0.970820	-18.995620	-171.374600	 1.708813	-50.418880	 1.045253	 87.036580	 82.808220	-91.923540	-2.366896	 32.024320	-0.079231	-7.035096	-38.446200	-175.377100	 15.467680	-57.146660	 13.737530	 107.453900	 81.632430	-106.950800	 2.360084	 32.834820	 0.099395	-7.358841	 7.786142	 1.818320	-1.998927	 1.000675	-1.175223	 2.972755	-1.753081	 1.524226	-94.269700	 58.988140	 174.678900	 24.205930	 41.006340	-21.283400	-2.521208	-2.267250	-25.119210	 2.108874	-5.168941	-8.110027	-4.854885	 19.607350	-2.809495	-3.861617	 21.726700	 2.182523	-4.797390	 5.673552	 0.139465	-0.014601	-5.146247	 0.281456	 1.059268	 1.917398	 2.605320	 89.628520	 61.832950	 179.631300	-18.851370	 53.239480	 12.733610	-3.097829	-0.934775	 4.226577	-5.478648	 11.411640	-0.178599	 6.255189	 22.217960	-0.586477	 2.171840	 42.276540	-7.246588	 1.087509	 21.759950	 3.293890
-0.057058	-2.269565	 1.158098	 6.576787	 0.959596	-3.501350	-1.203057	-17.805400	-171.001800	 2.002214	-49.614440	 1.256574	 89.855320	 82.938090	-94.904370	-2.358569	 33.293460	-0.108486	-5.997689	-41.083680	-174.326800	 14.755540	-52.567750	 12.430190	 134.703100	 72.145740	-136.148800	 2.352446	 33.926820	 0.124923	-7.557507	 6.850731	 2.009414	-1.872528	 1.541440	-0.787059	 2.743363	-2.071424	 1.332919	-94.480850	 58.866840	 174.248600	 23.422510	 38.821860	-21.653040	-3.658491	-1.957878	-27.939260	 1.681706	-5.762282	-7.243926	-4.825250	 20.227070	-2.822735	-3.823145	 22.212520	 2.143435	-4.769728	 5.998451	 0.120322	 0.023687	-5.279966	 0.343249	 0.888191	 1.805507	 2.559439	 89.444380	 62.032720	 179.183300	-17.207450	 54.028560	 10.548970	-5.261473	-0.972642	 3.725340	-6.037562	 12.266590	-2.195312	 6.195054	 19.002190	-0.710885	 2.538244	 38.825220	-7.565148	 1.782260	 18.497730	 2.983637
-0.058170	-2.303030	 1.155636	 6.927653	 1.015791	-3.774848	-1.649489	-15.777520	-170.991400	 2.412109	-48.971320	 1.553853	 81.397810	 83.043310	-86.605790	-2.331764	 36.676270	-0.189863	-4.811362	-42.307880	-173.392900	 14.335020	-47.472760	 11.240980	 129.147900	 70.293440	-131.887100	 2.335508	 36.054960	 0.176197	-8.047162	 6.861945	 2.109651	-1.727045	 1.944974	-0.464254	 2.573918	-2.558784	 1.152554	-94.542490	 58.944640	 174.104600	 21.636010	 37.461490	-21.877650	-3.811993	-2.042172	-29.996700	 1.263885	-6.926027	-7.610262	-4.848151	 20.512160	-3.039632	-3.786497	 22.669620	 2.106223	-4.728612	 6.478601	 0.091710	 0.113847	-5.405685	 0.344017	 0.826409	 1.781959	 2.257992	 89.358100	 61.930390	 178.978600	-15.514990	 54.641230	 6.636496	-6.841567	-1.753247	 6.014642	-5.924073	 12.018650	-3.952286	 6.166360	 16.100640	-0.660758	 2.879862	 35.203710	-7.855062	 2.377643	 15.578480	 2.745594
-0.062619	-2.351615	 1.150305	 7.289596	 0.741270	-3.060692	-2.469487	-12.688410	-172.305700	 2.562429	-48.667510	 1.659608	 49.075520	 81.709520	-53.864330	-2.216798	 45.848680	-0.445244	-3.552473	-42.702800	-173.494900	 9.917336	-40.733300	 7.004633	 87.341160	 78.427570	-87.344350	 2.339984	 35.525040	 0.163234	-8.807965	 6.881381	 1.405557	-1.482668	 3.175200	-0.158015	 2.292792	-3.161302	 0.843668	-94.480190	 59.303390	 174.178100	 19.091640	 36.138970	-23.099570	-4.039627	-2.014498	-31.332260	 0.483387	-8.191427	-8.234945	-4.887005	 20.669610	-3.314144	-3.758242	 23.018300	 2.077533	-4.657368	 7.302837	 0.041716	 0.227986	-5.478078	 0.256409	 0.810764	 1.941007	 2.205963	 89.354550	 61.518010	 178.985700	-14.017980	 54.817170	 2.283432	-8.250317	-2.823961	 8.827600	-6.048393	 11.246160	-5.318596	 6.236225	 12.822680	-0.152419	 3.086667	 32.798570	-8.026602	 2.982420	 12.505270	 2.531964
-0.069998	-2.417727	 1.140594	 8.647584	-0.303414	-1.721341	-2.597606	-7.533190	-174.988600	-0.467190	-48.128310	-0.610557	 17.764380	 71.882480	-18.877670	-1.867369	 58.934800	-0.980285	-0.069698	-43.157340	-172.589500	 7.213737	-34.869430	 4.577339	 8.033747	 68.042950	-2.937658	 2.334713	 36.146080	 0.178451	-10.138560	 7.286117	 0.067946	-1.448273	 5.424982	 0.266939	 1.739064	-3.896291	 0.326804	-94.374980	 59.057480	 174.443400	 16.429880	 34.071240	-25.079450	-4.515133	-1.808039	-32.554400	 0.219522	-7.020813	-7.929741	-4.889005	 20.969090	-3.425821	-3.727478	 23.394220	 2.046305	-4.559809	 8.415444	-0.027577	 0.380390	-5.400174	 0.287346	 0.661236	 2.461868	 2.481724	 89.186960	 61.365650	 178.595400	-12.712880	 54.634880	-0.278186	-8.856694	-3.002718	 9.048839	-6.535087	 10.313110	-4.731670	 6.348548	 9.612226	 0.409716	 3.328381	 29.763150	-8.222653	 3.475281	 9.928410	 2.380069
